<?xml version="1.0" encoding="utf-8"?>
<svg width="256px" height="256px" viewBox="0 0 256 256" version="1.1" xmlns:xlink="http://www.w3.org/1999/xlink" xmlns="http://www.w3.org/2000/svg">
  <defs>
    <rect width="256" height="256" id="artboard_1" />
    <clipPath id="clip_1">
      <use xlink:href="#artboard_1" clip-rule="evenodd" />
    </clipPath>
  </defs>
  <g id="Favicon" clip-path="url(#clip_1)">
    <use xlink:href="#artboard_1" stroke="none" fill="#FFFFFF" fill-opacity="0" />
    <g id="Icon" artboard="85ce7017-2da8-49bc-bd8f-513dc0f300b0">
      <path d="M0 128C0 57.3075 57.3075 0 128 0C198.692 0 256 57.3075 256 128C256 198.692 198.692 256 128 256C57.3075 256 0 198.692 0 128Z" id="Oval" fill="#004466" fill-rule="evenodd" stroke="none" />
      <path d="M35 203.5L35 188.581C39.3916 188.279 43.1504 187.25 46.2763 185.492C49.4021 183.733 52.5409 181.862 55.6925 179.878C58.8441 177.894 62.3704 176.136 66.2712 174.604C70.1721 173.071 74.99 172.305 80.7251 172.305C86.5116 172.305 91.3812 173.147 95.3335 174.83C99.2864 176.512 102.916 178.371 106.222 180.405C109.529 182.44 112.861 184.311 116.22 186.019C119.578 187.727 123.505 188.581 128 188.581C132.495 188.581 136.422 187.727 139.78 186.019C143.138 184.311 146.471 182.44 149.778 180.405C153.084 178.371 156.727 176.512 160.705 174.83C164.683 173.147 169.54 172.305 175.275 172.305C181.062 172.305 185.867 173.071 189.69 174.604C193.513 176.136 197.027 177.894 200.23 179.878C203.433 181.862 206.611 183.733 209.762 185.492C212.914 187.25 216.66 188.279 221 188.581L221 203.5C215.42 203.299 210.757 202.344 207.011 200.637C203.265 198.929 199.791 197.083 196.588 195.098C193.384 193.114 190.181 191.306 186.978 189.673C183.774 188.041 179.873 187.225 175.275 187.225C170.728 187.225 166.763 188.066 163.379 189.748C159.994 191.431 156.662 193.29 153.381 195.324C150.101 197.359 146.484 199.23 142.531 200.938C138.578 202.646 133.735 203.5 128 203.5C122.265 203.5 117.421 202.646 113.468 200.938C109.516 199.23 105.899 197.359 102.619 195.324C99.3377 193.29 96.0182 191.431 92.6601 189.748C89.3015 188.066 85.323 187.225 80.7251 187.225C76.1785 187.225 72.2647 188.041 68.9838 189.673C65.7029 191.306 62.4867 193.114 59.3351 195.098C56.1833 197.083 52.7346 198.929 48.9888 200.637C45.243 202.344 40.58 203.299 35 203.5L35 203.5L35 203.5ZM35 163.564L35 148.646C39.3916 148.344 43.1504 147.315 46.2763 145.556C49.4021 143.798 52.5409 141.927 55.6925 139.943C58.8441 137.959 62.3704 136.201 66.2712 134.669C70.1721 133.136 74.99 132.37 80.7251 132.37C86.5116 132.37 91.3812 133.211 95.3335 134.894C99.2864 136.577 102.916 138.436 106.222 140.47C109.529 142.505 112.861 144.376 116.22 146.084C119.578 147.792 123.505 148.646 128 148.646C132.495 148.646 136.422 147.792 139.78 146.084C143.138 144.376 146.471 142.505 149.778 140.47C153.084 138.436 156.727 136.577 160.705 134.894C164.683 133.211 169.54 132.37 175.275 132.37C181.062 132.37 185.867 133.136 189.69 134.669C193.513 136.201 197.027 137.959 200.23 139.943C203.433 141.927 206.611 143.798 209.762 145.556C212.914 147.315 216.66 148.344 221 148.646L221 163.564C215.42 163.163 210.757 162.083 207.011 160.325C203.265 158.567 199.791 156.721 196.588 154.787C193.384 152.853 190.181 151.12 186.978 149.588C183.774 148.056 179.873 147.289 175.275 147.289C170.677 147.289 166.711 148.13 163.379 149.813C160.046 151.496 156.713 153.355 153.381 155.389C150.049 157.424 146.419 159.295 142.492 161.003C138.566 162.711 133.735 163.564 128 163.564C122.265 163.564 117.421 162.711 113.468 161.003C109.516 159.295 105.899 157.424 102.619 155.389C99.3377 153.355 96.0182 151.496 92.6601 149.813C89.3015 148.13 85.323 147.289 80.7251 147.289C76.1785 147.289 72.2647 148.105 68.9838 149.738C65.7029 151.371 62.4867 153.179 59.3351 155.163C56.1833 157.148 52.7346 158.994 48.9888 160.702C45.243 162.409 40.58 163.364 35 163.564L35 163.564L35 163.564ZM35 123.63L35 108.711C39.3916 108.51 43.1504 107.555 46.2763 105.847C49.4021 104.14 52.5409 102.293 55.6925 100.309C58.8441 98.3249 62.3704 96.5167 66.2712 94.8838C70.1721 93.2513 74.99 92.4354 80.7251 92.4354C86.5116 92.4354 91.3812 93.2763 95.3335 94.9592C99.2864 96.6421 102.916 98.5007 106.222 100.535C109.529 102.57 112.861 104.441 116.22 106.149C119.578 107.857 123.505 108.711 128 108.711C132.495 108.711 136.422 107.857 139.78 106.149C143.138 104.441 146.471 102.57 149.778 100.535C153.084 98.5007 156.727 96.6421 160.705 94.9592C164.683 93.2763 169.54 92.4354 175.275 92.4354C181.062 92.4354 185.867 93.2513 189.69 94.8838C193.513 96.5167 197.027 98.3249 200.23 100.309C203.433 102.293 206.611 104.14 209.762 105.847C212.914 107.555 216.66 108.51 221 108.711L221 123.63C215.42 123.429 210.757 122.474 207.011 120.767C203.265 119.059 199.791 117.213 196.588 115.228C193.384 113.244 190.181 111.436 186.978 109.803C183.774 108.17 179.873 107.354 175.275 107.354C170.728 107.354 166.763 108.195 163.379 109.878C159.994 111.561 156.662 113.42 153.381 115.454C150.101 117.489 146.484 119.36 142.531 121.068C138.578 122.776 133.735 123.63 128 123.63C122.265 123.63 117.421 122.776 113.468 121.068C109.516 119.36 105.899 117.489 102.619 115.454C99.3377 113.42 96.0182 111.561 92.6601 109.878C89.3015 108.195 85.323 107.354 80.7251 107.354C76.1785 107.354 72.2647 108.17 68.9838 109.803C65.7029 111.436 62.4867 113.244 59.3351 115.228C56.1833 117.213 52.7346 119.059 48.9888 120.767C45.243 122.474 40.58 123.429 35 123.63L35 123.63L35 123.63ZM35 83.6944L35 68.7754C39.3916 68.4741 43.1504 67.4443 46.2763 65.6863C49.4021 63.9281 52.5409 62.0569 55.6925 60.0726C58.8441 58.0884 62.3704 56.3303 66.2712 54.7983C70.1721 53.2661 74.99 52.5 80.7251 52.5C86.5116 52.5 91.3812 53.3414 95.3335 55.0243C99.2864 56.707 102.916 58.5656 106.222 60.6002C109.529 62.6347 112.861 64.5058 116.22 66.2137C119.578 67.9215 123.505 68.7754 128 68.7754C132.495 68.7754 136.422 67.9215 139.78 66.2136C143.138 64.5058 146.471 62.6347 149.778 60.6002C153.084 58.5656 156.727 56.707 160.705 55.0243C164.683 53.3414 169.54 52.5 175.275 52.5C181.062 52.5 185.867 53.2661 189.69 54.7983C193.513 56.3303 197.027 58.0884 200.23 60.0726C203.433 62.0569 206.611 63.9281 209.762 65.6863C212.914 67.4443 216.66 68.4741 221 68.7754L221 83.6944C215.42 83.4937 210.757 82.5394 207.011 80.831C203.265 79.1232 199.791 77.2775 196.588 75.293C193.384 73.3088 190.181 71.5005 186.978 69.8679C183.774 68.2354 179.873 67.4191 175.275 67.4191C170.728 67.4191 166.763 68.2605 163.379 69.9432C159.994 71.6261 156.662 73.4847 153.381 75.5193C150.101 77.5537 146.484 79.4248 142.531 81.1327C138.578 82.8405 133.735 83.6944 128 83.6944C122.265 83.6944 117.421 82.8405 113.468 81.1327C109.516 79.4248 105.899 77.5537 102.619 75.5193C99.3377 73.4847 96.0182 71.6261 92.6601 69.9432C89.3015 68.2605 85.323 67.4191 80.7251 67.4191C76.1785 67.4191 72.2647 68.2354 68.9838 69.8679C65.7029 71.5005 62.4867 73.3088 59.3351 75.293C56.1833 77.2775 52.7346 79.1232 48.9888 80.831C45.243 82.5394 40.58 83.4937 35 83.6944L35 83.6944L35 83.6944Z" id="Shape" fill="#FFFFFF" fill-rule="evenodd" stroke="none" />
    </g>
  </g>
</svg>