<?xml version="1.0" encoding="utf-8"?>
<svg width="240px" height="22.000002px" viewBox="0 0 240 22.000002" version="1.1" xmlns:xlink="http://www.w3.org/1999/xlink" xmlns="http://www.w3.org/2000/svg">
  <defs>
    <rect width="240" height="22.000002" id="artboard_1" />
    <clipPath id="clip_1">
      <use xlink:href="#artboard_1" clip-rule="evenodd" />
    </clipPath>
  </defs>
  <g id="Logo" clip-path="url(#clip_1)">
    <use xlink:href="#artboard_1" stroke="none" fill="#FFFFFF" fill-opacity="0" />
    <g id="Icon" artboard="c1093916-d6c5-410b-9188-504c32df398f">
      <path d="M0 11C0 4.92487 4.92487 0 11 0C17.0751 0 22 4.92487 22 11C22 17.0751 17.0751 22 11 22C4.92487 22 0 17.0751 0 11Z" id="Oval" fill="#FFFFFF" fill-rule="evenodd" stroke="none" />
      <path d="M3 17.5L3 16.2156C3.37777 16.1896 3.70111 16.101 3.97 15.9496C4.23889 15.7982 4.50889 15.6372 4.78 15.4663C5.05111 15.2955 5.35444 15.1441 5.69 15.0122C6.02556 14.8803 6.44 14.8144 6.93334 14.8144C7.4311 14.8144 7.85 14.8868 8.18998 15.0317C8.53001 15.1765 8.8422 15.3366 9.12665 15.5117C9.4111 15.6869 9.69775 15.848 9.98667 15.995C10.2755 16.1421 10.6133 16.2156 11 16.2156C11.3867 16.2156 11.7245 16.1421 12.0133 15.995C12.3022 15.848 12.5889 15.6869 12.8733 15.5117C13.1578 15.3366 13.4711 15.1765 13.8133 15.0317C14.1556 14.8868 14.5733 14.8144 15.0666 14.8144C15.5645 14.8144 15.9778 14.8803 16.3066 15.0122C16.6355 15.1441 16.9378 15.2955 17.2133 15.4663C17.4889 15.6372 17.7622 15.7982 18.0333 15.9496C18.3044 16.101 18.6267 16.1896 19 16.2156L19 17.5C18.52 17.4827 18.1189 17.4005 17.7966 17.2535C17.4744 17.1065 17.1756 16.9475 16.9 16.7767C16.6244 16.6059 16.3489 16.4502 16.0733 16.3096C15.7978 16.1691 15.4622 16.0988 15.0666 16.0988C14.6755 16.0988 14.3345 16.1712 14.0433 16.3161C13.7522 16.461 13.4656 16.621 13.1833 16.7961C12.9011 16.9713 12.59 17.1324 12.25 17.2795C11.91 17.4265 11.4933 17.5 11 17.5C10.5066 17.5 10.09 17.4265 9.74998 17.2795C9.40999 17.1324 9.09886 16.9713 8.81667 16.7961C8.53443 16.621 8.24888 16.461 7.96001 16.3161C7.6711 16.1712 7.32886 16.0988 6.93334 16.0988C6.54224 16.0988 6.20557 16.1691 5.92334 16.3096C5.64111 16.4502 5.36444 16.6059 5.09334 16.7767C4.82222 16.9475 4.52555 17.1065 4.20334 17.2535C3.88112 17.4005 3.48 17.4827 3 17.5L3 17.5L3 17.5ZM3 14.0618L3 12.7775C3.37777 12.7515 3.70111 12.6628 3.97 12.5115C4.23889 12.3601 4.50889 12.199 4.78 12.0282C5.05111 11.8574 5.35444 11.706 5.69 11.5741C6.02556 11.4422 6.44 11.3762 6.93334 11.3762C7.4311 11.3762 7.85 11.4487 8.18998 11.5935C8.53001 11.7384 8.8422 11.8984 9.12665 12.0736C9.4111 12.2487 9.69775 12.4098 9.98667 12.5569C10.2755 12.7039 10.6133 12.7775 11 12.7775C11.3867 12.7775 11.7245 12.7039 12.0133 12.5569C12.3022 12.4098 12.5889 12.2487 12.8733 12.0736C13.1578 11.8984 13.4711 11.7384 13.8133 11.5935C14.1556 11.4487 14.5733 11.3762 15.0666 11.3762C15.5645 11.3762 15.9778 11.4422 16.3066 11.5741C16.6355 11.706 16.9378 11.8574 17.2133 12.0282C17.4889 12.199 17.7622 12.3601 18.0333 12.5115C18.3044 12.6628 18.6267 12.7515 19 12.7775L19 14.0618C18.52 14.0273 18.1189 13.9343 17.7966 13.7829C17.4744 13.6316 17.1756 13.4726 16.9 13.3061C16.6244 13.1396 16.3489 12.9904 16.0733 12.8585C15.7978 12.7266 15.4622 12.6606 15.0666 12.6606C14.6711 12.6606 14.33 12.7331 14.0433 12.878C13.7567 13.0229 13.47 13.1829 13.1833 13.358C12.8967 13.5332 12.5844 13.6943 12.2466 13.8413C11.9089 13.9883 11.4933 14.0618 11 14.0618C10.5066 14.0618 10.09 13.9883 9.74998 13.8413C9.40999 13.6943 9.09886 13.5332 8.81667 13.358C8.53443 13.1829 8.24888 13.0229 7.96001 12.878C7.6711 12.7331 7.32886 12.6606 6.93334 12.6606C6.54224 12.6606 6.20557 12.7309 5.92334 12.8715C5.64111 13.0121 5.36444 13.1677 5.09334 13.3385C4.82222 13.5094 4.52555 13.6683 4.20334 13.8154C3.88112 13.9624 3.48 14.0446 3 14.0618L3 14.0618L3 14.0618ZM3 10.6238L3 9.33934C3.37777 9.32201 3.70111 9.23986 3.97 9.09282C4.23889 8.94579 4.50889 8.78685 4.78 8.616C5.05111 8.44519 5.35444 8.28952 5.69 8.14893C6.02556 8.00839 6.44 7.93815 6.93334 7.93815C7.4311 7.93815 7.85 8.01054 8.18998 8.15543C8.53001 8.30031 8.8422 8.46033 9.12665 8.63548C9.4111 8.81063 9.69775 8.97172 9.98667 9.11875C10.2755 9.26583 10.6133 9.33934 11 9.33934C11.3867 9.33934 11.7245 9.26583 12.0133 9.11875C12.3022 8.97172 12.5889 8.81063 12.8733 8.63548C13.1578 8.46033 13.4711 8.30031 13.8133 8.15543C14.1556 8.01054 14.5733 7.93815 15.0666 7.93815C15.5645 7.93815 15.9778 8.00839 16.3066 8.14893C16.6355 8.28952 16.9378 8.44519 17.2133 8.616C17.4889 8.78685 17.7622 8.94579 18.0333 9.09282C18.3044 9.23986 18.6267 9.32201 19 9.33934L19 10.6238C18.52 10.6064 18.1189 10.5243 17.7966 10.3773C17.4744 10.2302 17.1756 10.0713 16.9 9.90043C16.6244 9.72962 16.3489 9.57395 16.0733 9.43336C15.7978 9.29282 15.4622 9.22253 15.0666 9.22253C14.6755 9.22253 14.3345 9.29497 14.0433 9.43986C13.7522 9.58474 13.4656 9.74475 13.1833 9.9199C12.9011 10.0951 12.59 10.2561 12.25 10.4032C11.91 10.5502 11.4933 10.6238 11 10.6238C10.5066 10.6238 10.09 10.5502 9.74998 10.4032C9.40999 10.2561 9.09886 10.0951 8.81667 9.9199C8.53443 9.74475 8.24888 9.58474 7.96001 9.43986C7.6711 9.29497 7.32886 9.22253 6.93334 9.22253C6.54224 9.22253 6.20557 9.29282 5.92334 9.43336C5.64111 9.57395 5.36444 9.72962 5.09334 9.90043C4.82222 10.0713 4.52555 10.2302 4.20334 10.3773C3.88112 10.5243 3.48 10.6064 3 10.6238L3 10.6238L3 10.6238ZM3 7.18561L3 5.9012C3.37777 5.87525 3.70111 5.7866 3.97 5.63524C4.23889 5.48387 4.50889 5.32278 4.78 5.15195C5.05111 4.98112 5.35444 4.82976 5.69 4.69786C6.02556 4.56595 6.44 4.5 6.93334 4.5C7.4311 4.5 7.85 4.57244 8.18998 4.71733C8.53001 4.86219 8.8422 5.02221 9.12665 5.19737C9.4111 5.37252 9.69775 5.53361 9.98667 5.68065C10.2755 5.82768 10.6133 5.9012 11 5.9012C11.3867 5.9012 11.7245 5.82768 12.0133 5.68064C12.3022 5.53361 12.5889 5.37252 12.8733 5.19737C13.1578 5.02221 13.4711 4.86219 13.8133 4.71732C14.1556 4.57244 14.5733 4.5 15.0666 4.5C15.5645 4.5 15.9778 4.56595 16.3066 4.69786C16.6355 4.82976 16.9378 4.98112 17.2133 5.15195C17.4889 5.32278 17.7622 5.48387 18.0333 5.63524C18.3044 5.7866 18.6267 5.87525 19 5.9012L19 7.18561C18.52 7.16833 18.1189 7.08617 17.7966 6.93909C17.4744 6.79206 17.1756 6.63317 16.9 6.46231C16.6244 6.29149 16.3489 6.1358 16.0733 5.99525C15.7978 5.8547 15.4622 5.78443 15.0666 5.78443C14.6755 5.78443 14.3345 5.85687 14.0433 6.00173C13.7522 6.14662 13.4656 6.30663 13.1833 6.48179C12.9011 6.65694 12.59 6.81803 12.25 6.96506C11.91 7.11209 11.4933 7.18561 11 7.18561C10.5066 7.18561 10.09 7.11209 9.74998 6.96506C9.40999 6.81803 9.09886 6.65694 8.81667 6.48179C8.53443 6.30663 8.24888 6.14662 7.96001 6.00173C7.6711 5.85687 7.32886 5.78443 6.93334 5.78443C6.54224 5.78443 6.20557 5.8547 5.92334 5.99525C5.64111 6.1358 5.36444 6.29149 5.09334 6.46231C4.82222 6.63317 4.52555 6.79206 4.20334 6.93909C3.88112 7.08617 3.48 7.16833 3 7.18561L3 7.18561L3 7.18561Z" id="Shape" fill="#004466" fill-rule="evenodd" stroke="none" />
    </g>
    <g id="Blue-Wave-Hotel" fill="#FFFFFF" transform="translate(27 0)" artboard="06c7bdd1-4dfb-4dc4-aed5-06597d32ea22">
      <path d="M18.956 20.8027L18.956 19.4867L20.496 19.1507Q20.524 18.0867 20.538 17.0227Q20.552 15.9587 20.552 14.9227L20.552 3.19073L18.816 2.91073L18.816 1.73473L24.696 0.474733L25.144 0.754734L25.032 4.67473L25.032 14.9227Q25.032 15.9867 25.046 17.0507Q25.06 18.1147 25.088 19.1787L26.628 19.4867L26.628 20.8027L18.956 20.8027ZM205.1 19.4867L205.1 20.8027L212.772 20.8027L212.772 19.4867L211.232 19.1787Q211.204 18.1147 211.19 17.0507Q211.176 15.9867 211.176 14.9227L211.176 4.67473L211.288 0.754734L210.84 0.474733L204.96 1.73473L204.96 2.91073L206.696 3.19073L206.696 14.9227Q206.696 15.9587 206.682 17.0227Q206.668 18.0867 206.64 19.1507L205.1 19.4867ZM0.924 3.91873L0.924 2.40673L9.968 2.40673Q12.348 2.40674 13.776 2.98073Q15.204 3.55473 15.848 4.53473Q16.492 5.51473 16.492 6.74673Q16.492 7.69873 16.072 8.52473Q15.652 9.35073 14.616 9.98073Q13.58 10.6107 11.732 10.9467Q14.868 11.3107 16.226 12.5287Q17.584 13.7467 17.584 15.6507Q17.584 16.5187 17.192 17.4287Q16.8 18.3387 15.848 19.0947Q14.896 19.8507 13.202 20.3267Q11.508 20.8027 8.904 20.8027L0.924 20.8027L0.924 19.2907L3.024 19.0667Q3.08 17.3307 3.08 15.5667L3.08 7.68473Q3.08 5.90674 3.024 4.14273L0.924 3.91873ZM86.324 2.40673L86.324 3.91873L88.312 4.22673L85.092 15.6227L81.816 4.22673L84.28 3.91873L84.28 2.40673L75.88 2.40673L75.88 3.91873L77.924 4.17073L74.564 15.3987L71.708 4.14273L73.752 3.91873L73.752 2.40673L65.072 2.40673L65.072 3.91873L66.78 4.08673L71.792 20.8587L74.536 20.8587L78.4 8.14673L82.376 20.8587L85.12 20.8587L90.048 4.28273L92.232 3.91873L92.232 2.40673L86.324 2.40673ZM154.196 2.40673L154.196 3.91873L156.156 4.11473Q156.212 5.71074 156.212 7.32073L156.212 10.5267L150.248 10.5267Q150.248 9.18273 150.262 7.50273Q150.276 5.82273 150.304 4.11473L152.264 3.91873L152.264 2.40673L143.444 2.40673L143.444 3.91873L145.488 4.14273Q145.544 5.87873 145.544 7.61473L145.544 15.6227Q145.544 17.3587 145.488 19.0667L143.444 19.2907L143.444 20.8027L152.264 20.8027L152.264 19.2907L150.304 19.0947Q150.276 17.4427 150.262 15.7487Q150.248 14.0547 150.248 12.1787L156.212 12.1787L156.212 15.6227Q156.212 17.3587 156.156 19.0947L154.196 19.2907L154.196 20.8027L163.044 20.8027L163.044 19.2907L160.972 19.0667Q160.944 17.3307 160.93 15.5807Q160.916 13.8307 160.916 12.1227L160.916 11.0867Q160.916 9.32273 160.93 7.58673Q160.944 5.85073 160.972 4.14273L163.044 3.91873L163.044 2.40673L154.196 2.40673ZM182.924 20.3127Q183.988 21.2227 185.864 21.2227Q187.432 21.2227 188.426 20.6347Q189.42 20.0467 189.98 18.9827L189.28 18.3107Q188.496 18.9267 187.768 18.9267Q187.152 18.9267 186.746 18.4647Q186.34 18.0027 186.34 17.0227L186.34 9.18273L189.28 9.18273L189.28 7.27873L186.34 7.27873L186.396 3.33073L183.54 3.33073L182.14 7.25073L180.068 7.53073L180.068 9.18273L181.888 9.18273L181.888 14.5307Q181.888 15.3427 181.874 15.9727Q181.86 16.6027 181.86 17.3307Q181.86 19.4027 182.924 20.3127ZM8.736 4.03073L7.756 4.03073Q7.728 5.59873 7.714 7.20873Q7.7 8.81873 7.7 10.4427L8.484 10.4427Q10.276 10.4427 11.116 9.58873Q11.956 8.73473 11.956 7.08273Q11.956 4.03074 8.736 4.03073ZM52.052 21.2227Q50.008 21.2227 48.44 20.3687Q46.872 19.5147 45.976 17.9047Q45.08 16.2947 45.08 14.0547Q45.08 11.7027 46.13 10.0927Q47.18 8.48273 48.832 7.65673Q50.484 6.83073 52.276 6.83073Q54.124 6.83073 55.426 7.61473Q56.728 8.39874 57.4 9.72873Q58.072 11.0587 58.072 12.7667Q58.072 13.5787 57.904 14.2507L49.812 14.2507Q49.952 16.4627 51.03 17.5127Q52.108 18.5627 53.564 18.5627Q54.712 18.5627 55.524 18.1287Q56.336 17.6947 56.952 17.0507L57.932 17.9467Q57.064 19.5987 55.58 20.4107Q54.096 21.2227 52.052 21.2227ZM103.936 21.1947Q101.5 21.1947 100.856 19.1787Q99.96 20.1307 99.134 20.6767Q98.308 21.2227 96.852 21.2227Q95.228 21.2227 94.206 20.2987Q93.184 19.3747 93.184 17.6387Q93.184 16.6307 93.632 15.8187Q94.08 15.0067 95.256 14.3067Q96.432 13.6067 98.588 12.9907Q99.008 12.8507 99.568 12.7107Q100.128 12.5707 100.716 12.4307L100.716 11.5067Q100.716 9.63073 100.254 8.95873Q99.792 8.28673 98.448 8.28673L98.084 8.28673Q97.916 8.28673 97.692 8.31473L97.552 9.54673Q97.524 10.9187 96.922 11.5347Q96.32 12.1507 95.508 12.1507Q93.968 12.1507 93.632 10.7507Q93.744 9.01473 95.396 7.92273Q97.048 6.83073 100.072 6.83073Q102.76 6.83073 103.922 8.06273Q105.084 9.29473 105.084 12.1227L105.084 18.3947Q105.084 19.2067 105.7 19.2067Q105.924 19.2067 106.12 19.0807Q106.316 18.9547 106.54 18.5907L107.296 19.0947Q106.792 20.2147 105.994 20.7047Q105.196 21.1947 103.936 21.1947ZM129.724 21.2227Q127.68 21.2227 126.112 20.3687Q124.544 19.5147 123.648 17.9047Q122.752 16.2947 122.752 14.0547Q122.752 11.7027 123.802 10.0927Q124.852 8.48273 126.504 7.65673Q128.156 6.83073 129.948 6.83073Q131.796 6.83073 133.098 7.61473Q134.4 8.39874 135.072 9.72873Q135.744 11.0587 135.744 12.7667Q135.744 13.5787 135.576 14.2507L127.484 14.2507Q127.624 16.4627 128.702 17.5127Q129.78 18.5627 131.236 18.5627Q132.384 18.5627 133.196 18.1287Q134.008 17.6947 134.624 17.0507L135.604 17.9467Q134.736 19.5987 133.252 20.4107Q131.768 21.2227 129.724 21.2227ZM171.864 21.2227Q169.68 21.2227 168.084 20.3127Q166.488 19.4027 165.62 17.7647Q164.752 16.1267 164.752 13.9707Q164.752 11.8147 165.69 10.2187Q166.628 8.62273 168.252 7.72673Q169.876 6.83073 171.864 6.83073Q173.852 6.83073 175.462 7.69873Q177.072 8.56674 178.024 10.1767Q178.976 11.7867 178.976 13.9707Q178.976 16.1547 178.108 17.7787Q177.24 19.4027 175.644 20.3127Q174.048 21.2227 171.864 21.2227ZM197.568 21.2227Q195.524 21.2227 193.956 20.3687Q192.388 19.5147 191.492 17.9047Q190.596 16.2947 190.596 14.0547Q190.596 11.7027 191.646 10.0927Q192.696 8.48273 194.348 7.65673Q196 6.83073 197.792 6.83073Q199.64 6.83073 200.942 7.61473Q202.244 8.39874 202.916 9.72873Q203.588 11.0587 203.588 12.7667Q203.588 13.5787 203.42 14.2507L195.328 14.2507Q195.468 16.4627 196.546 17.5127Q197.624 18.5627 199.08 18.5627Q200.228 18.5627 201.04 18.1287Q201.852 17.6947 202.468 17.0507L203.448 17.9467Q202.58 19.5987 201.096 20.4107Q199.612 21.2227 197.568 21.2227ZM37.8 18.7587L37.968 21.1107L43.708 20.8307L43.708 19.5147L42.252 19.2067L42.252 11.2547L42.336 7.30673L41.888 6.99873L36.316 7.89473L36.316 8.98673L37.856 9.32273L37.744 17.2467Q37.184 17.7787 36.554 18.1427Q35.924 18.5067 35.336 18.5067Q34.636 18.5067 34.23 18.0027Q33.824 17.4987 33.824 16.2107L33.824 11.2547L33.964 7.30673L33.516 6.99873L27.804 7.81073L27.804 8.98673L29.428 9.35073L29.316 16.1827Q29.288 18.9547 30.38 20.0887Q31.472 21.2227 33.264 21.2227Q34.608 21.2227 35.756 20.5787Q36.904 19.9347 37.8 18.7587ZM116.48 7.27873L116.48 8.51073L118.244 8.84673L115.808 16.0427L113.176 8.87473L114.94 8.51073L114.94 7.27873L106.988 7.27873L106.988 8.51073L108.36 8.79073L113.4 20.8587L115.528 20.8587L120.148 8.81873L121.772 8.51073L121.772 7.27873L116.48 7.27873ZM51.996 8.28673Q51.212 8.28673 50.554 9.25273Q49.896 10.2187 49.812 12.7947L52.192 12.7947Q53.2 12.7947 53.55 12.3887Q53.9 11.9827 53.9 11.0307Q53.9 9.63073 53.34 8.95873Q52.78 8.28673 51.996 8.28673ZM129.668 8.28673Q128.884 8.28673 128.226 9.25273Q127.568 10.2187 127.484 12.7947L129.864 12.7947Q130.872 12.7947 131.222 12.3887Q131.572 11.9827 131.572 11.0307Q131.572 9.63073 131.012 8.95873Q130.452 8.28673 129.668 8.28673ZM197.512 8.28673Q196.728 8.28673 196.07 9.25273Q195.412 10.2187 195.328 12.7947L197.708 12.7947Q198.716 12.7947 199.066 12.3887Q199.416 11.9827 199.416 11.0307Q199.416 9.63073 198.856 8.95873Q198.296 8.28673 197.512 8.28673ZM171.864 19.7667Q173.04 19.7667 173.628 18.3947Q174.216 17.0227 174.216 14.0547Q174.216 11.0587 173.628 9.68673Q173.04 8.31474 171.864 8.31473Q170.66 8.31473 170.072 9.68673Q169.484 11.0587 169.484 14.0547Q169.484 17.0227 170.072 18.3947Q170.66 19.7667 171.864 19.7667ZM8.652 11.9267L7.7 11.9267Q7.7 13.8867 7.714 15.6647Q7.728 17.4427 7.756 19.1787L8.652 19.1787Q10.612 19.1787 11.69 18.2827Q12.768 17.3867 12.768 15.5947Q12.768 13.6907 11.746 12.8087Q10.724 11.9267 8.652 11.9267ZM97.328 16.9107Q97.328 17.9467 97.818 18.4507Q98.308 18.9547 99.008 18.9547Q99.316 18.9547 99.652 18.8147Q99.988 18.6747 100.716 18.1707L100.716 13.6347Q100.352 13.7467 100.002 13.8727Q99.652 13.9987 99.4 14.1107Q98.448 14.5027 97.888 15.2167Q97.328 15.9307 97.328 16.9107Z" />
    </g>
  </g>
</svg>